<?xml version="1.0" encoding="UTF-8" standalone="no"?>
<!DOCTYPE svg PUBLIC "-//W3C//DTD SVG 1.1//EN" "http://www.w3.org/Graphics/SVG/1.1/DTD/svg11.dtd">
<svg width="100%" height="100%" viewBox="0 0 1024 1024" version="1.1" xmlns="http://www.w3.org/2000/svg" xmlns:xlink="http://www.w3.org/1999/xlink" xml:space="preserve" xmlns:serif="http://www.serif.com/" style="fill-rule:evenodd;clip-rule:evenodd;stroke-linejoin:round;stroke-miterlimit:2;">
    <g id="Background" transform="matrix(2.562042,0,0,2.562042,-800.159183,-563.446728)">
        <g transform="matrix(0.390314,0,0,0.390314,312.313053,219.92095)">
            <rect x="0" y="0" width="1024" height="1024" style="fill:rgb(247,250,248);"/>
        </g>
        <path d="M627.446,366.382C627.322,366.583 627.042,366.652 626.918,366.852C626.545,367.453 626.777,367.576 622.676,374.607C621.71,376.265 607.426,400.036 605.784,402.674C601.02,410.329 598.161,415.404 597.528,416.528C597.156,417.188 597.018,417.015 596.529,417.004C596.324,416.999 596.089,417.153 595.914,417.045C595.723,416.927 592.683,410.147 592.411,409.543C591.606,407.747 591.508,407.796 581.866,387.32C580.008,383.373 581.126,383.167 583.366,379.418C583.721,378.824 613.04,330.785 625.926,309.77C628.386,305.758 629.045,305.55 629.474,305.415C630.52,305.086 632.638,305.293 651.498,305.221C658.47,305.195 660.082,304.991 660.521,306.493C660.813,307.491 660.587,448.692 660.697,518.5C660.702,521.301 660.751,552.337 660.685,553.511C660.625,554.592 660.485,555.702 658.528,555.805C658.35,555.814 613.842,555.839 613.473,555.795C612.001,555.621 611.35,555.234 609.342,550.574C607.628,546.598 607.434,546.691 586.994,501.286C573.11,470.446 573.233,470.393 572.01,467.719C570.574,464.579 570.446,464.349 569.501,464.502C568.931,464.593 569.025,464.794 565.599,470.559C554.928,488.513 554.739,488.386 546.048,503.236C543.546,507.509 537.522,517.428 536.775,518.658C533.579,523.92 530.219,529.638 529.656,530.597C524.662,539.096 524.328,539.227 523.519,539.543C522.028,540.127 521.966,539.897 503.501,539.844C500.581,539.835 500.336,539.791 498.717,537.368C497.575,535.661 477.738,502.745 477.579,502.454C477.444,502.209 470.942,491.506 469.68,489.393C466.57,484.186 461.112,475.615 460.937,474.431C460.689,472.753 465.238,464.647 465.443,464.447C466.557,463.36 467.543,463.606 483.5,463.593C487.819,463.589 489.602,463.065 491.203,465.681C495.643,472.938 495.314,473.113 499.78,480.334C500.674,481.78 509.468,496.904 509.748,497.351C509.9,497.595 511.256,500.096 511.636,500.226C512.863,500.645 512.86,499.693 517.27,492.368C519.945,487.925 527.5,474.949 528.384,473.431C528.908,472.531 528.91,472.535 538.006,457.216C538.812,455.858 541.107,451.889 541.375,451.425C550.219,436.126 554.457,430.12 554.24,428.526C554.038,427.044 547.284,412.947 545.419,408.537C543.773,404.647 543.575,404.74 523.733,360.395C514.14,338.956 514.003,338.555 513.33,336.588C513.074,335.838 513.33,335.549 512.552,335.401C511.313,335.167 511.319,335.516 510.816,336.656C510.732,336.846 510.829,336.954 508.734,341.603C505.373,349.063 500.342,360.661 473.754,419.615C471.097,425.506 450.531,471.763 434.743,506.612C426.265,525.323 413.57,553.745 412.783,554.715C411.722,556.02 411.427,555.824 397.499,555.821C365.194,555.815 365.157,555.839 364.48,555.536C363.412,555.06 363.633,554.655 363.605,536.5C363.598,532.205 363.585,313.259 363.6,311.5C363.621,308.979 363.361,305.983 364.494,305.489C365.047,305.248 365.068,305.231 390.498,305.239C394.495,305.24 395.155,304.899 396.792,307.314C397.941,309.01 412.022,332.411 413.338,334.599C414.684,336.836 438.294,375.564 438.321,375.609C443.016,383.343 443.935,383.649 442.667,386.574C442.165,387.731 432.724,407.738 432.409,408.457C432.17,409.002 429.186,415.336 428.944,415.818C428.429,416.842 428.436,417.345 427.389,416.864C426.567,416.486 425.857,414.741 425.189,413.692C424.896,413.232 399.046,371.007 398.359,369.589C397.575,367.967 397.104,366.568 396.505,366.483C395.606,366.355 395.516,366.56 395.412,367.47C395.312,368.347 395.739,368.321 395.741,378.5C395.743,388.5 395.77,499.138 395.724,503.5C395.682,507.48 394.626,510.762 396.505,510.511C397.249,510.412 397.174,508.919 399.248,504.379C404.103,493.751 409.173,483.134 410.052,481.294C413.049,475.02 412.885,474.969 417.068,466.295C417.546,465.302 426.437,446.138 427.25,444.384C443.536,409.365 459.822,374.345 476.108,339.326C501.335,285.283 501.261,285.231 501.721,284.674C502.642,283.56 502.901,283.717 516.501,283.711C521.159,283.709 522.196,283.273 523.601,286.453C524.417,288.299 536.092,313.16 536.644,314.432C536.82,314.838 549.565,342.013 550.614,344.445C550.899,345.106 586.08,421.258 592.03,433.711C593.652,437.104 593.484,437.18 611.854,476.336C621.482,496.859 625.711,505.778 626.298,507.625C626.474,508.178 626.593,508.756 626.842,509.28C626.946,509.5 627.198,509.616 627.338,509.814C627.45,509.972 627.399,510.365 627.59,510.336C628.826,510.144 628.75,509.824 628.738,508.563C628.718,506.396 628.332,506.434 628.327,499.501C628.313,479.385 628.3,374.594 628.39,371.5C628.444,369.621 628.753,367.757 628.72,367.424C628.69,367.119 628.483,366.85 628.453,366.545C628.117,366.491 627.782,366.437 627.446,366.382Z" style="fill:rgb(10,31,58);"/>
        <path d="M498.496,452.93C485.29,452.923 472.807,452.974 472.409,452.94C471.191,452.837 471.005,452.698 471.016,451.477C471.016,451.452 470.956,451.435 472.732,447.608C479.66,432.672 479.574,432.647 480.219,431.37C480.993,429.84 481.779,426.928 483.494,426.477C484.763,426.144 531.804,426.431 540.509,426.308C544.075,426.257 542.128,428.675 541.612,429.561C538.802,434.383 529.548,451.674 528.45,452.429C527.497,453.084 526.081,452.952 498.496,452.93Z" style="fill:rgb(10,32,58);"/>
    </g>
</svg>
